<svg xmlns="http://www.w3.org/2000/svg" viewBox="0 0 33.73 35.83"><defs><style>.cls-1{fill:#f9b200;}.cls-2{fill:#464648;}.cls-3{fill:#fff;}</style></defs><title>jexia-icon</title><g id="Layer_2" data-name="Layer 2"><g id="Layer_1-2" data-name="Layer 1"><g id="_Group_" data-name="&lt;Group&gt;"><path id="_Path_" data-name="&lt;Path&gt;" class="cls-1" d="M16.87,34.62A15.65,15.65,0,1,0,1.22,19,15.65,15.65,0,0,0,16.87,34.62"/><path id="_Compound_Path_" data-name="&lt;Compound Path&gt;" class="cls-2" d="M28.32,6.6l4.52-4.52A1.22,1.22,0,1,0,31.13.36L26.41,5.07a16.86,16.86,0,0,0-19.11,0L2.59.36A1.22,1.22,0,0,0,.87,2.08L5.4,6.6a16.87,16.87,0,1,0,22.92,0ZM16.87,33.4A14.38,14.38,0,0,1,6.66,29.17,14.57,14.57,0,0,1,5.58,28,7.08,7.08,0,1,0,3.13,15.9c1.61-3.82,5.3-7.81,13.74-6.06h0c8.37-1.73,12.06,2.17,13.7,6A7.08,7.08,0,1,0,28.12,28a14.58,14.58,0,0,1-1.05,1.18A14.38,14.38,0,0,1,16.87,33.4Z"/><path id="_Path_2" data-name="&lt;Path&gt;" class="cls-3" d="M10.17,15.39a2.15,2.15,0,1,0,2.15,2.15,2.15,2.15,0,0,0-2.15-2.15"/><path id="_Path_3" data-name="&lt;Path&gt;" class="cls-3" d="M28.46,15.39a2.15,2.15,0,1,0,2.15,2.15,2.15,2.15,0,0,0-2.15-2.15"/></g></g></g></svg>